<svg
  height="24"
  viewBox="0 0 12 24"
  fill="#0000FF"
  xmlns="http://www.w3.org/2000/svg"
>
  <path
    fill-rule="evenodd"
    clip-rule="evenodd"
    d="M8.24403 0.197888C8.96329 0.608894 9.21318 1.52516 8.80218 2.24442L4.40528 9.93899C4.26242 10.189 4.44293 10.5 4.73086 10.5H10.4998C11.0345 10.5 11.5287 10.7847 11.7971 11.2471C12.0655 11.7096 12.0674 12.2799 11.8021 12.7442L5.80224 23.244C5.39123 23.9632 4.47497 24.2131 3.75571 23.8021C3.03645 23.3911 2.78656 22.4748 3.19757 21.7556L7.59447 14.061C7.73732 13.811 7.55681 13.5 7.26888 13.5H1.49997C0.965274 13.5 0.471008 13.2153 0.202631 12.7529C-0.0657467 12.2904 -0.0676515 11.7201 0.197631 11.2558L6.1975 0.756032C6.60851 0.0367713 7.52477 -0.213118 8.24403 0.197888Z"
  ></path>
</svg>
